<svg xmlns="http://www.w3.org/2000/svg" version="1.1" xmlns:xlink="http://www.w3.org/1999/xlink" xmlns:svgjs="http://svgjs.dev/svgjs" width="1440" height="811" preserveAspectRatio="none" viewBox="0 0 1440 811"><g mask="url(&quot;#SvgjsMask1456&quot;)" fill="none"><rect width="1440" height="811" x="0" y="0" fill="rgba(23, 23, 23, 1)"></rect><path d="M-41.49 518.85L-41.49 518.85" stroke="rgba(83, 83, 83, 0.8)" stroke-width="1.5"></path><path d="M-41.49 518.85L-81.13 643.8" stroke="rgba(83, 83, 83, 0.8)" stroke-width="1.5"></path><path d="M-41.49 518.85L57.87 697.17" stroke="rgba(83, 83, 83, 0.8)" stroke-width="1.5"></path><path d="M-81.13 643.8L-81.13 643.8" stroke="rgba(83, 83, 83, 0.8)" stroke-width="1.5"></path><path d="M-81.13 643.8L57.87 697.17" stroke="rgba(83, 83, 83, 0.8)" stroke-width="1.5"></path><path d="M-81.13 643.8L-88.01 829.86" stroke="rgba(83, 83, 83, 0.8)" stroke-width="1.5"></path><path d="M-88.01 829.86L-88.01 829.86" stroke="rgba(83, 83, 83, 0.8)" stroke-width="1.5"></path><path d="M-88.01 829.86L-60.08 946.65" stroke="rgba(83, 83, 83, 0.8)" stroke-width="1.5"></path><path d="M-88.01 829.86L107.12 852.36" stroke="rgba(83, 83, 83, 0.8)" stroke-width="1.5"></path><path d="M-88.01 829.86L57.87 697.17" stroke="rgba(83, 83, 83, 0.8)" stroke-width="1.5"></path><path d="M-60.08 946.65L-60.08 946.65" stroke="rgba(83, 83, 83, 0.8)" stroke-width="1.5"></path><path d="M-60.08 946.65L78.89 1002.23" stroke="rgba(83, 83, 83, 0.8)" stroke-width="1.5"></path><path d="M-60.08 946.65L107.12 852.36" stroke="rgba(83, 83, 83, 0.8)" stroke-width="1.5"></path><path d="M-60.08 946.65L192.42 998.03" stroke="rgba(83, 83, 83, 0.8)" stroke-width="1.5"></path><path d="M-60.08 946.65L57.87 697.17" stroke="rgba(83, 83, 83, 0.8)" stroke-width="1.5"></path><path d="M-60.08 946.65L194.14 832.62" stroke="rgba(83, 83, 83, 0.8)" stroke-width="1.5"></path><path d="M57.87 697.17L57.87 697.17" stroke="rgba(83, 83, 83, 0.8)" stroke-width="1.5"></path><path d="M57.87 697.17L107.12 852.36" stroke="rgba(83, 83, 83, 0.8)" stroke-width="1.5"></path><path d="M57.87 697.17L194.14 832.62" stroke="rgba(83, 83, 83, 0.8)" stroke-width="1.5"></path><path d="M107.12 852.36L107.12 852.36" stroke="rgba(83, 83, 83, 0.8)" stroke-width="1.5"></path><path d="M107.12 852.36L194.14 832.62" stroke="rgba(83, 83, 83, 0.8)" stroke-width="1.5"></path><path d="M107.12 852.36L78.89 1002.23" stroke="rgba(83, 83, 83, 0.8)" stroke-width="1.5"></path><path d="M107.12 852.36L192.42 998.03" stroke="rgba(83, 83, 83, 0.8)" stroke-width="1.5"></path><path d="M78.89 1002.23L78.89 1002.23" stroke="rgba(83, 83, 83, 0.8)" stroke-width="1.5"></path><path d="M78.89 1002.23L192.42 998.03" stroke="rgba(83, 83, 83, 0.8)" stroke-width="1.5"></path><path d="M78.89 1002.23L194.14 832.62" stroke="rgba(83, 83, 83, 0.8)" stroke-width="1.5"></path><path d="M78.89 1002.23L-88.01 829.86" stroke="rgba(83, 83, 83, 0.8)" stroke-width="1.5"></path><path d="M194.14 832.62L194.14 832.62" stroke="rgba(83, 83, 83, 0.8)" stroke-width="1.5"></path><path d="M194.14 832.62L192.42 998.03" stroke="rgba(83, 83, 83, 0.8)" stroke-width="1.5"></path><path d="M192.42 998.03L192.42 998.03" stroke="rgba(83, 83, 83, 0.8)" stroke-width="1.5"></path><path d="M388.9 548.34L388.9 548.34" stroke="rgba(83, 83, 83, 0.8)" stroke-width="1.5"></path><path d="M388.9 548.34L521.75 512.99" stroke="rgba(83, 83, 83, 0.8)" stroke-width="1.5"></path><path d="M388.9 548.34L364.05 694.78" stroke="rgba(83, 83, 83, 0.8)" stroke-width="1.5"></path><path d="M388.9 548.34L531.1 672.65" stroke="rgba(83, 83, 83, 0.8)" stroke-width="1.5"></path><path d="M388.9 548.34L408.53 796.01" stroke="rgba(83, 83, 83, 0.8)" stroke-width="1.5"></path><path d="M388.9 548.34L646.03 661.32" stroke="rgba(83, 83, 83, 0.8)" stroke-width="1.5"></path><path d="M388.9 548.34L556 815.46" stroke="rgba(83, 83, 83, 0.8)" stroke-width="1.5"></path><path d="M364.05 694.78L364.05 694.78" stroke="rgba(83, 83, 83, 0.8)" stroke-width="1.5"></path><path d="M364.05 694.78L408.53 796.01" stroke="rgba(83, 83, 83, 0.8)" stroke-width="1.5"></path><path d="M364.05 694.78L531.1 672.65" stroke="rgba(83, 83, 83, 0.8)" stroke-width="1.5"></path><path d="M364.05 694.78L194.14 832.62" stroke="rgba(83, 83, 83, 0.8)" stroke-width="1.5"></path><path d="M364.05 694.78L556 815.46" stroke="rgba(83, 83, 83, 0.8)" stroke-width="1.5"></path><path d="M364.05 694.78L521.75 512.99" stroke="rgba(83, 83, 83, 0.8)" stroke-width="1.5"></path><path d="M408.53 796.01L408.53 796.01" stroke="rgba(83, 83, 83, 0.8)" stroke-width="1.5"></path><path d="M521.75 512.99L521.75 512.99" stroke="rgba(83, 83, 83, 0.8)" stroke-width="1.5"></path><path d="M521.75 512.99L531.1 672.65" stroke="rgba(83, 83, 83, 0.8)" stroke-width="1.5"></path><path d="M531.1 672.65L531.1 672.65" stroke="rgba(83, 83, 83, 0.8)" stroke-width="1.5"></path><path d="M531.1 672.65L646.03 661.32" stroke="rgba(83, 83, 83, 0.8)" stroke-width="1.5"></path><path d="M531.1 672.65L556 815.46" stroke="rgba(83, 83, 83, 0.8)" stroke-width="1.5"></path><path d="M531.1 672.65L408.53 796.01" stroke="rgba(83, 83, 83, 0.8)" stroke-width="1.5"></path><path d="M556 815.46L556 815.46" stroke="rgba(83, 83, 83, 0.8)" stroke-width="1.5"></path><path d="M556 815.46L671.33 819.1" stroke="rgba(83, 83, 83, 0.8)" stroke-width="1.5"></path><path d="M556 815.46L408.53 796.01" stroke="rgba(83, 83, 83, 0.8)" stroke-width="1.5"></path><path d="M556 815.46L646.03 661.32" stroke="rgba(83, 83, 83, 0.8)" stroke-width="1.5"></path><path d="M556 815.46L506.21 1007.21" stroke="rgba(83, 83, 83, 0.8)" stroke-width="1.5"></path><path d="M506.21 1007.21L506.21 1007.21" stroke="rgba(83, 83, 83, 0.8)" stroke-width="1.5"></path><path d="M506.21 1007.21L699 990.59" stroke="rgba(83, 83, 83, 0.8)" stroke-width="1.5"></path><path d="M506.21 1007.21L408.53 796.01" stroke="rgba(83, 83, 83, 0.8)" stroke-width="1.5"></path><path d="M506.21 1007.21L671.33 819.1" stroke="rgba(83, 83, 83, 0.8)" stroke-width="1.5"></path><path d="M707.67 516.18L707.67 516.18" stroke="rgba(83, 83, 83, 0.8)" stroke-width="1.5"></path><path d="M707.67 516.18L810.99 529.65" stroke="rgba(83, 83, 83, 0.8)" stroke-width="1.5"></path><path d="M707.67 516.18L646.03 661.32" stroke="rgba(83, 83, 83, 0.8)" stroke-width="1.5"></path><path d="M707.67 516.18L521.75 512.99" stroke="rgba(83, 83, 83, 0.8)" stroke-width="1.5"></path><path d="M707.67 516.18L834.68 691.48" stroke="rgba(83, 83, 83, 0.8)" stroke-width="1.5"></path><path d="M707.67 516.18L531.1 672.65" stroke="rgba(83, 83, 83, 0.8)" stroke-width="1.5"></path><path d="M646.03 661.32L646.03 661.32" stroke="rgba(83, 83, 83, 0.8)" stroke-width="1.5"></path><path d="M671.33 819.1L671.33 819.1" stroke="rgba(83, 83, 83, 0.8)" stroke-width="1.5"></path><path d="M671.33 819.1L646.03 661.32" stroke="rgba(83, 83, 83, 0.8)" stroke-width="1.5"></path><path d="M671.33 819.1L843.31 826.25" stroke="rgba(83, 83, 83, 0.8)" stroke-width="1.5"></path><path d="M671.33 819.1L699 990.59" stroke="rgba(83, 83, 83, 0.8)" stroke-width="1.5"></path><path d="M699 990.59L699 990.59" stroke="rgba(83, 83, 83, 0.8)" stroke-width="1.5"></path><path d="M699 990.59L788.96 987.92" stroke="rgba(83, 83, 83, 0.8)" stroke-width="1.5"></path><path d="M844.85 189.77L844.85 189.77" stroke="rgba(83, 83, 83, 0.8)" stroke-width="1.5"></path><path d="M844.85 189.77L987.32 89.79" stroke="rgba(83, 83, 83, 0.8)" stroke-width="1.5"></path><path d="M844.85 189.77L955.33 354.2" stroke="rgba(83, 83, 83, 0.8)" stroke-width="1.5"></path><path d="M844.85 189.77L1009.88 -79.8" stroke="rgba(83, 83, 83, 0.8)" stroke-width="1.5"></path><path d="M844.85 189.77L1161.06 223.15" stroke="rgba(83, 83, 83, 0.8)" stroke-width="1.5"></path><path d="M844.85 189.77L1095.93 395.46" stroke="rgba(83, 83, 83, 0.8)" stroke-width="1.5"></path><path d="M844.85 189.77L1160.73 72.44" stroke="rgba(83, 83, 83, 0.8)" stroke-width="1.5"></path><path d="M810.99 529.65L810.99 529.65" stroke="rgba(83, 83, 83, 0.8)" stroke-width="1.5"></path><path d="M810.99 529.65L834.68 691.48" stroke="rgba(83, 83, 83, 0.8)" stroke-width="1.5"></path><path d="M834.68 691.48L834.68 691.48" stroke="rgba(83, 83, 83, 0.8)" stroke-width="1.5"></path><path d="M834.68 691.48L843.31 826.25" stroke="rgba(83, 83, 83, 0.8)" stroke-width="1.5"></path><path d="M834.68 691.48L969.77 674.78" stroke="rgba(83, 83, 83, 0.8)" stroke-width="1.5"></path><path d="M834.68 691.48L646.03 661.32" stroke="rgba(83, 83, 83, 0.8)" stroke-width="1.5"></path><path d="M834.68 691.48L976.08 821.06" stroke="rgba(83, 83, 83, 0.8)" stroke-width="1.5"></path><path d="M843.31 826.25L843.31 826.25" stroke="rgba(83, 83, 83, 0.8)" stroke-width="1.5"></path><path d="M843.31 826.25L976.08 821.06" stroke="rgba(83, 83, 83, 0.8)" stroke-width="1.5"></path><path d="M788.96 987.92L788.96 987.92" stroke="rgba(83, 83, 83, 0.8)" stroke-width="1.5"></path><path d="M788.96 987.92L843.31 826.25" stroke="rgba(83, 83, 83, 0.8)" stroke-width="1.5"></path><path d="M788.96 987.92L671.33 819.1" stroke="rgba(83, 83, 83, 0.8)" stroke-width="1.5"></path><path d="M788.96 987.92L1000.16 955.21" stroke="rgba(83, 83, 83, 0.8)" stroke-width="1.5"></path><path d="M788.96 987.92L976.08 821.06" stroke="rgba(83, 83, 83, 0.8)" stroke-width="1.5"></path><path d="M1009.88 -79.8L1009.88 -79.8" stroke="rgba(83, 83, 83, 0.8)" stroke-width="1.5"></path><path d="M1009.88 -79.8L1127.13 -48.29" stroke="rgba(83, 83, 83, 0.8)" stroke-width="1.5"></path><path d="M1009.88 -79.8L987.32 89.79" stroke="rgba(83, 83, 83, 0.8)" stroke-width="1.5"></path><path d="M1009.88 -79.8L1160.73 72.44" stroke="rgba(83, 83, 83, 0.8)" stroke-width="1.5"></path><path d="M1009.88 -79.8L1308.55 -92.85" stroke="rgba(83, 83, 83, 0.8)" stroke-width="1.5"></path><path d="M987.32 89.79L987.32 89.79" stroke="rgba(83, 83, 83, 0.8)" stroke-width="1.5"></path><path d="M987.32 89.79L1160.73 72.44" stroke="rgba(83, 83, 83, 0.8)" stroke-width="1.5"></path><path d="M987.32 89.79L1127.13 -48.29" stroke="rgba(83, 83, 83, 0.8)" stroke-width="1.5"></path><path d="M955.33 354.2L955.33 354.2" stroke="rgba(83, 83, 83, 0.8)" stroke-width="1.5"></path><path d="M955.33 354.2L1095.93 395.46" stroke="rgba(83, 83, 83, 0.8)" stroke-width="1.5"></path><path d="M955.33 354.2L1003.83 554.86" stroke="rgba(83, 83, 83, 0.8)" stroke-width="1.5"></path><path d="M1003.83 554.86L1003.83 554.86" stroke="rgba(83, 83, 83, 0.8)" stroke-width="1.5"></path><path d="M1003.83 554.86L969.77 674.78" stroke="rgba(83, 83, 83, 0.8)" stroke-width="1.5"></path><path d="M1003.83 554.86L1162.02 538.17" stroke="rgba(83, 83, 83, 0.8)" stroke-width="1.5"></path><path d="M1003.83 554.86L1095.93 395.46" stroke="rgba(83, 83, 83, 0.8)" stroke-width="1.5"></path><path d="M969.77 674.78L969.77 674.78" stroke="rgba(83, 83, 83, 0.8)" stroke-width="1.5"></path><path d="M969.77 674.78L976.08 821.06" stroke="rgba(83, 83, 83, 0.8)" stroke-width="1.5"></path><path d="M969.77 674.78L843.31 826.25" stroke="rgba(83, 83, 83, 0.8)" stroke-width="1.5"></path><path d="M976.08 821.06L976.08 821.06" stroke="rgba(83, 83, 83, 0.8)" stroke-width="1.5"></path><path d="M976.08 821.06L1000.16 955.21" stroke="rgba(83, 83, 83, 0.8)" stroke-width="1.5"></path><path d="M976.08 821.06L1126.49 952.15" stroke="rgba(83, 83, 83, 0.8)" stroke-width="1.5"></path><path d="M1000.16 955.21L1000.16 955.21" stroke="rgba(83, 83, 83, 0.8)" stroke-width="1.5"></path><path d="M1000.16 955.21L1126.49 952.15" stroke="rgba(83, 83, 83, 0.8)" stroke-width="1.5"></path><path d="M1000.16 955.21L843.31 826.25" stroke="rgba(83, 83, 83, 0.8)" stroke-width="1.5"></path><path d="M1127.13 -48.29L1127.13 -48.29" stroke="rgba(83, 83, 83, 0.8)" stroke-width="1.5"></path><path d="M1127.13 -48.29L1160.73 72.44" stroke="rgba(83, 83, 83, 0.8)" stroke-width="1.5"></path><path d="M1127.13 -48.29L1308.55 -92.85" stroke="rgba(83, 83, 83, 0.8)" stroke-width="1.5"></path><path d="M1160.73 72.44L1160.73 72.44" stroke="rgba(83, 83, 83, 0.8)" stroke-width="1.5"></path><path d="M1160.73 72.44L1161.06 223.15" stroke="rgba(83, 83, 83, 0.8)" stroke-width="1.5"></path><path d="M1160.73 72.44L1238.63 243.75" stroke="rgba(83, 83, 83, 0.8)" stroke-width="1.5"></path><path d="M1161.06 223.15L1161.06 223.15" stroke="rgba(83, 83, 83, 0.8)" stroke-width="1.5"></path><path d="M1161.06 223.15L1238.63 243.75" stroke="rgba(83, 83, 83, 0.8)" stroke-width="1.5"></path><path d="M1161.06 223.15L1284.78 346.93" stroke="rgba(83, 83, 83, 0.8)" stroke-width="1.5"></path><path d="M1161.06 223.15L1095.93 395.46" stroke="rgba(83, 83, 83, 0.8)" stroke-width="1.5"></path><path d="M1095.93 395.46L1095.93 395.46" stroke="rgba(83, 83, 83, 0.8)" stroke-width="1.5"></path><path d="M1095.93 395.46L1162.02 538.17" stroke="rgba(83, 83, 83, 0.8)" stroke-width="1.5"></path><path d="M1162.02 538.17L1162.02 538.17" stroke="rgba(83, 83, 83, 0.8)" stroke-width="1.5"></path><path d="M1162.02 538.17L1256.59 552.03" stroke="rgba(83, 83, 83, 0.8)" stroke-width="1.5"></path><path d="M1162.02 538.17L1294.75 655.11" stroke="rgba(83, 83, 83, 0.8)" stroke-width="1.5"></path><path d="M1162.02 538.17L1284.78 346.93" stroke="rgba(83, 83, 83, 0.8)" stroke-width="1.5"></path><path d="M1162.02 538.17L969.77 674.78" stroke="rgba(83, 83, 83, 0.8)" stroke-width="1.5"></path><path d="M1126.49 952.15L1126.49 952.15" stroke="rgba(83, 83, 83, 0.8)" stroke-width="1.5"></path><path d="M1126.49 952.15L1237.85 953.88" stroke="rgba(83, 83, 83, 0.8)" stroke-width="1.5"></path><path d="M1126.49 952.15L1310.92 821.46" stroke="rgba(83, 83, 83, 0.8)" stroke-width="1.5"></path><path d="M1126.49 952.15L1425.06 984.98" stroke="rgba(83, 83, 83, 0.8)" stroke-width="1.5"></path><path d="M1126.49 952.15L843.31 826.25" stroke="rgba(83, 83, 83, 0.8)" stroke-width="1.5"></path><path d="M1308.55 -92.85L1308.55 -92.85" stroke="rgba(83, 83, 83, 0.8)" stroke-width="1.5"></path><path d="M1308.55 -92.85L1407.04 -102.08" stroke="rgba(83, 83, 83, 0.8)" stroke-width="1.5"></path><path d="M1308.55 -92.85L1426.9 90.76" stroke="rgba(83, 83, 83, 0.8)" stroke-width="1.5"></path><path d="M1308.55 -92.85L1160.73 72.44" stroke="rgba(83, 83, 83, 0.8)" stroke-width="1.5"></path><path d="M1238.63 243.75L1238.63 243.75" stroke="rgba(83, 83, 83, 0.8)" stroke-width="1.5"></path><path d="M1238.63 243.75L1284.78 346.93" stroke="rgba(83, 83, 83, 0.8)" stroke-width="1.5"></path><path d="M1238.63 243.75L1439.31 189.06" stroke="rgba(83, 83, 83, 0.8)" stroke-width="1.5"></path><path d="M1238.63 243.75L1095.93 395.46" stroke="rgba(83, 83, 83, 0.8)" stroke-width="1.5"></path><path d="M1238.63 243.75L1392.34 408.89" stroke="rgba(83, 83, 83, 0.8)" stroke-width="1.5"></path><path d="M1284.78 346.93L1284.78 346.93" stroke="rgba(83, 83, 83, 0.8)" stroke-width="1.5"></path><path d="M1284.78 346.93L1392.34 408.89" stroke="rgba(83, 83, 83, 0.8)" stroke-width="1.5"></path><path d="M1284.78 346.93L1095.93 395.46" stroke="rgba(83, 83, 83, 0.8)" stroke-width="1.5"></path><path d="M1284.78 346.93L1256.59 552.03" stroke="rgba(83, 83, 83, 0.8)" stroke-width="1.5"></path><path d="M1284.78 346.93L1439.31 189.06" stroke="rgba(83, 83, 83, 0.8)" stroke-width="1.5"></path><path d="M1256.59 552.03L1256.59 552.03" stroke="rgba(83, 83, 83, 0.8)" stroke-width="1.5"></path><path d="M1256.59 552.03L1294.75 655.11" stroke="rgba(83, 83, 83, 0.8)" stroke-width="1.5"></path><path d="M1294.75 655.11L1294.75 655.11" stroke="rgba(83, 83, 83, 0.8)" stroke-width="1.5"></path><path d="M1294.75 655.11L1421.52 700.99" stroke="rgba(83, 83, 83, 0.8)" stroke-width="1.5"></path><path d="M1294.75 655.11L1310.92 821.46" stroke="rgba(83, 83, 83, 0.8)" stroke-width="1.5"></path><path d="M1310.92 821.46L1310.92 821.46" stroke="rgba(83, 83, 83, 0.8)" stroke-width="1.5"></path><path d="M1310.92 821.46L1412.74 798.71" stroke="rgba(83, 83, 83, 0.8)" stroke-width="1.5"></path><path d="M1310.92 821.46L1237.85 953.88" stroke="rgba(83, 83, 83, 0.8)" stroke-width="1.5"></path><path d="M1310.92 821.46L1421.52 700.99" stroke="rgba(83, 83, 83, 0.8)" stroke-width="1.5"></path><path d="M1237.85 953.88L1237.85 953.88" stroke="rgba(83, 83, 83, 0.8)" stroke-width="1.5"></path><path d="M1237.85 953.88L1425.06 984.98" stroke="rgba(83, 83, 83, 0.8)" stroke-width="1.5"></path><path d="M1237.85 953.88L1412.74 798.71" stroke="rgba(83, 83, 83, 0.8)" stroke-width="1.5"></path><path d="M1407.04 -102.08L1407.04 -102.08" stroke="rgba(83, 83, 83, 0.8)" stroke-width="1.5"></path><path d="M1407.04 -102.08L1567.77 -66.01" stroke="rgba(83, 83, 83, 0.8)" stroke-width="1.5"></path><path d="M1407.04 -102.08L1426.9 90.76" stroke="rgba(83, 83, 83, 0.8)" stroke-width="1.5"></path><path d="M1407.04 -102.08L1578.77 110.39" stroke="rgba(83, 83, 83, 0.8)" stroke-width="1.5"></path><path d="M1407.04 -102.08L1127.13 -48.29" stroke="rgba(83, 83, 83, 0.8)" stroke-width="1.5"></path><path d="M1407.04 -102.08L1439.31 189.06" stroke="rgba(83, 83, 83, 0.8)" stroke-width="1.5"></path><path d="M1426.9 90.76L1426.9 90.76" stroke="rgba(83, 83, 83, 0.8)" stroke-width="1.5"></path><path d="M1426.9 90.76L1439.31 189.06" stroke="rgba(83, 83, 83, 0.8)" stroke-width="1.5"></path><path d="M1426.9 90.76L1578.77 110.39" stroke="rgba(83, 83, 83, 0.8)" stroke-width="1.5"></path><path d="M1426.9 90.76L1568.56 205.86" stroke="rgba(83, 83, 83, 0.8)" stroke-width="1.5"></path><path d="M1426.9 90.76L1567.77 -66.01" stroke="rgba(83, 83, 83, 0.8)" stroke-width="1.5"></path><path d="M1439.31 189.06L1439.31 189.06" stroke="rgba(83, 83, 83, 0.8)" stroke-width="1.5"></path><path d="M1439.31 189.06L1568.56 205.86" stroke="rgba(83, 83, 83, 0.8)" stroke-width="1.5"></path><path d="M1392.34 408.89L1392.34 408.89" stroke="rgba(83, 83, 83, 0.8)" stroke-width="1.5"></path><path d="M1392.34 408.89L1417.69 524.81" stroke="rgba(83, 83, 83, 0.8)" stroke-width="1.5"></path><path d="M1392.34 408.89L1256.59 552.03" stroke="rgba(83, 83, 83, 0.8)" stroke-width="1.5"></path><path d="M1392.34 408.89L1590.21 379.57" stroke="rgba(83, 83, 83, 0.8)" stroke-width="1.5"></path><path d="M1417.69 524.81L1417.69 524.81" stroke="rgba(83, 83, 83, 0.8)" stroke-width="1.5"></path><path d="M1417.69 524.81L1256.59 552.03" stroke="rgba(83, 83, 83, 0.8)" stroke-width="1.5"></path><path d="M1417.69 524.81L1421.52 700.99" stroke="rgba(83, 83, 83, 0.8)" stroke-width="1.5"></path><path d="M1417.69 524.81L1294.75 655.11" stroke="rgba(83, 83, 83, 0.8)" stroke-width="1.5"></path><path d="M1421.52 700.99L1421.52 700.99" stroke="rgba(83, 83, 83, 0.8)" stroke-width="1.5"></path><path d="M1421.52 700.99L1412.74 798.71" stroke="rgba(83, 83, 83, 0.8)" stroke-width="1.5"></path><path d="M1421.52 700.99L1544.5 710.64" stroke="rgba(83, 83, 83, 0.8)" stroke-width="1.5"></path><path d="M1412.74 798.71L1412.74 798.71" stroke="rgba(83, 83, 83, 0.8)" stroke-width="1.5"></path><path d="M1412.74 798.71L1544.5 710.64" stroke="rgba(83, 83, 83, 0.8)" stroke-width="1.5"></path><path d="M1425.06 984.98L1425.06 984.98" stroke="rgba(83, 83, 83, 0.8)" stroke-width="1.5"></path><path d="M1425.06 984.98L1592.75 1005.63" stroke="rgba(83, 83, 83, 0.8)" stroke-width="1.5"></path><path d="M1425.06 984.98L1412.74 798.71" stroke="rgba(83, 83, 83, 0.8)" stroke-width="1.5"></path><path d="M1425.06 984.98L1310.92 821.46" stroke="rgba(83, 83, 83, 0.8)" stroke-width="1.5"></path><path d="M1425.06 984.98L1578.18 844.61" stroke="rgba(83, 83, 83, 0.8)" stroke-width="1.5"></path><path d="M1567.77 -66.01L1567.77 -66.01" stroke="rgba(83, 83, 83, 0.8)" stroke-width="1.5"></path><path d="M1567.77 -66.01L1578.77 110.39" stroke="rgba(83, 83, 83, 0.8)" stroke-width="1.5"></path><path d="M1567.77 -66.01L1308.55 -92.85" stroke="rgba(83, 83, 83, 0.8)" stroke-width="1.5"></path><path d="M1567.77 -66.01L1568.56 205.86" stroke="rgba(83, 83, 83, 0.8)" stroke-width="1.5"></path><path d="M1578.77 110.39L1578.77 110.39" stroke="rgba(83, 83, 83, 0.8)" stroke-width="1.5"></path><path d="M1578.77 110.39L1568.56 205.86" stroke="rgba(83, 83, 83, 0.8)" stroke-width="1.5"></path><path d="M1578.77 110.39L1439.31 189.06" stroke="rgba(83, 83, 83, 0.8)" stroke-width="1.5"></path><path d="M1568.56 205.86L1568.56 205.86" stroke="rgba(83, 83, 83, 0.8)" stroke-width="1.5"></path><path d="M1590.21 379.57L1590.21 379.57" stroke="rgba(83, 83, 83, 0.8)" stroke-width="1.5"></path><path d="M1590.21 379.57L1610.72 518.05" stroke="rgba(83, 83, 83, 0.8)" stroke-width="1.5"></path><path d="M1590.21 379.57L1568.56 205.86" stroke="rgba(83, 83, 83, 0.8)" stroke-width="1.5"></path><path d="M1590.21 379.57L1417.69 524.81" stroke="rgba(83, 83, 83, 0.8)" stroke-width="1.5"></path><path d="M1610.72 518.05L1610.72 518.05" stroke="rgba(83, 83, 83, 0.8)" stroke-width="1.5"></path><path d="M1610.72 518.05L1417.69 524.81" stroke="rgba(83, 83, 83, 0.8)" stroke-width="1.5"></path><path d="M1610.72 518.05L1544.5 710.64" stroke="rgba(83, 83, 83, 0.8)" stroke-width="1.5"></path><path d="M1610.72 518.05L1392.34 408.89" stroke="rgba(83, 83, 83, 0.8)" stroke-width="1.5"></path><path d="M1544.5 710.64L1544.5 710.64" stroke="rgba(83, 83, 83, 0.8)" stroke-width="1.5"></path><path d="M1544.5 710.64L1578.18 844.61" stroke="rgba(83, 83, 83, 0.8)" stroke-width="1.5"></path><path d="M1544.5 710.64L1417.69 524.81" stroke="rgba(83, 83, 83, 0.8)" stroke-width="1.5"></path><path d="M1578.18 844.61L1578.18 844.61" stroke="rgba(83, 83, 83, 0.8)" stroke-width="1.5"></path><path d="M1578.18 844.61L1592.75 1005.63" stroke="rgba(83, 83, 83, 0.8)" stroke-width="1.5"></path><path d="M1578.18 844.61L1412.74 798.71" stroke="rgba(83, 83, 83, 0.8)" stroke-width="1.5"></path><path d="M1592.75 1005.63L1592.75 1005.63" stroke="rgba(83, 83, 83, 0.8)" stroke-width="1.5"></path><circle r="5" cx="-41.49" cy="518.85" fill="rgba(83, 83, 83, 0.8)"></circle><circle r="5" cx="-81.13" cy="643.8" fill="rgba(83, 83, 83, 0.8)"></circle><circle r="5" cx="-88.01" cy="829.86" fill="rgba(83, 83, 83, 0.8)"></circle><circle r="5" cx="-60.08" cy="946.65" fill="rgba(83, 83, 83, 0.8)"></circle><circle r="5" cx="57.87" cy="697.17" fill="rgba(83, 83, 83, 0.8)"></circle><circle r="5" cx="107.12" cy="852.36" fill="rgba(83, 83, 83, 0.8)"></circle><circle r="5" cx="78.89" cy="1002.23" fill="rgba(83, 83, 83, 0.8)"></circle><circle r="5" cx="194.14" cy="832.62" fill="rgba(83, 83, 83, 0.8)"></circle><circle r="5" cx="192.42" cy="998.03" fill="rgba(83, 83, 83, 0.8)"></circle><circle r="5" cx="388.9" cy="548.34" fill="rgba(83, 83, 83, 0.8)"></circle><circle r="5" cx="364.05" cy="694.78" fill="rgba(83, 83, 83, 0.8)"></circle><circle r="5" cx="408.53" cy="796.01" fill="rgba(83, 83, 83, 0.8)"></circle><circle r="5" cx="521.75" cy="512.99" fill="rgba(83, 83, 83, 0.8)"></circle><circle r="5" cx="531.1" cy="672.65" fill="rgba(83, 83, 83, 0.8)"></circle><circle r="5" cx="556" cy="815.46" fill="rgba(83, 83, 83, 0.8)"></circle><circle r="5" cx="506.21" cy="1007.21" fill="rgba(83, 83, 83, 0.8)"></circle><circle r="5" cx="707.67" cy="516.18" fill="rgba(83, 83, 83, 0.8)"></circle><circle r="5" cx="646.03" cy="661.32" fill="rgba(83, 83, 83, 0.8)"></circle><circle r="5" cx="671.33" cy="819.1" fill="rgba(83, 83, 83, 0.8)"></circle><circle r="5" cx="699" cy="990.59" fill="rgba(83, 83, 83, 0.8)"></circle><circle r="5" cx="844.85" cy="189.77" fill="rgba(83, 83, 83, 0.8)"></circle><circle r="5" cx="810.99" cy="529.65" fill="rgba(83, 83, 83, 0.8)"></circle><circle r="5" cx="834.68" cy="691.48" fill="rgba(83, 83, 83, 0.8)"></circle><circle r="5" cx="843.31" cy="826.25" fill="rgba(83, 83, 83, 0.8)"></circle><circle r="5" cx="788.96" cy="987.92" fill="rgba(83, 83, 83, 0.8)"></circle><circle r="5" cx="1009.88" cy="-79.8" fill="rgba(83, 83, 83, 0.8)"></circle><circle r="5" cx="987.32" cy="89.79" fill="rgba(83, 83, 83, 0.8)"></circle><circle r="5" cx="955.33" cy="354.2" fill="rgba(83, 83, 83, 0.8)"></circle><circle r="5" cx="1003.83" cy="554.86" fill="rgba(83, 83, 83, 0.8)"></circle><circle r="5" cx="969.77" cy="674.78" fill="rgba(83, 83, 83, 0.8)"></circle><circle r="5" cx="976.08" cy="821.06" fill="rgba(83, 83, 83, 0.8)"></circle><circle r="5" cx="1000.16" cy="955.21" fill="rgba(83, 83, 83, 0.8)"></circle><circle r="5" cx="1127.13" cy="-48.29" fill="rgba(83, 83, 83, 0.8)"></circle><circle r="5" cx="1160.73" cy="72.44" fill="rgba(83, 83, 83, 0.8)"></circle><circle r="5" cx="1161.06" cy="223.15" fill="rgba(83, 83, 83, 0.8)"></circle><circle r="5" cx="1095.93" cy="395.46" fill="rgba(83, 83, 83, 0.8)"></circle><circle r="5" cx="1162.02" cy="538.17" fill="rgba(83, 83, 83, 0.8)"></circle><circle r="5" cx="1126.49" cy="952.15" fill="rgba(83, 83, 83, 0.8)"></circle><circle r="5" cx="1308.55" cy="-92.85" fill="rgba(83, 83, 83, 0.8)"></circle><circle r="5" cx="1238.63" cy="243.75" fill="rgba(83, 83, 83, 0.8)"></circle><circle r="5" cx="1284.78" cy="346.93" fill="rgba(83, 83, 83, 0.8)"></circle><circle r="5" cx="1256.59" cy="552.03" fill="rgba(83, 83, 83, 0.8)"></circle><circle r="5" cx="1294.75" cy="655.11" fill="rgba(83, 83, 83, 0.8)"></circle><circle r="5" cx="1310.92" cy="821.46" fill="rgba(83, 83, 83, 0.8)"></circle><circle r="5" cx="1237.85" cy="953.88" fill="rgba(83, 83, 83, 0.8)"></circle><circle r="5" cx="1407.04" cy="-102.08" fill="rgba(83, 83, 83, 0.8)"></circle><circle r="5" cx="1426.9" cy="90.76" fill="rgba(83, 83, 83, 0.8)"></circle><circle r="5" cx="1439.31" cy="189.06" fill="rgba(83, 83, 83, 0.8)"></circle><circle r="5" cx="1392.34" cy="408.89" fill="rgba(83, 83, 83, 0.8)"></circle><circle r="5" cx="1417.69" cy="524.81" fill="rgba(83, 83, 83, 0.8)"></circle><circle r="5" cx="1421.52" cy="700.99" fill="rgba(83, 83, 83, 0.8)"></circle><circle r="5" cx="1412.74" cy="798.71" fill="rgba(83, 83, 83, 0.8)"></circle><circle r="5" cx="1425.06" cy="984.98" fill="rgba(83, 83, 83, 0.8)"></circle><circle r="5" cx="1567.77" cy="-66.01" fill="rgba(83, 83, 83, 0.8)"></circle><circle r="5" cx="1578.77" cy="110.39" fill="rgba(83, 83, 83, 0.8)"></circle><circle r="5" cx="1568.56" cy="205.86" fill="rgba(83, 83, 83, 0.8)"></circle><circle r="5" cx="1590.21" cy="379.57" fill="rgba(83, 83, 83, 0.8)"></circle><circle r="5" cx="1610.72" cy="518.05" fill="rgba(83, 83, 83, 0.8)"></circle><circle r="5" cx="1544.5" cy="710.64" fill="rgba(83, 83, 83, 0.8)"></circle><circle r="5" cx="1578.18" cy="844.61" fill="rgba(83, 83, 83, 0.8)"></circle><circle r="5" cx="1592.75" cy="1005.63" fill="rgba(83, 83, 83, 0.8)"></circle><path d="M-64.75 995.49L-64.75 995.49" stroke="hsla(0, 0%, 42.3%, 0.3)" stroke-width="1.5"></path><path d="M-64.75 995.49L96.51 987.26" stroke="hsla(0, 0%, 42.3%, 0.3)" stroke-width="1.5"></path><path d="M-64.75 995.49L-99.98 823.63" stroke="hsla(0, 0%, 42.3%, 0.3)" stroke-width="1.5"></path><path d="M-64.75 995.49L110.88 821.64" stroke="hsla(0, 0%, 42.3%, 0.3)" stroke-width="1.5"></path><path d="M371.9 844.15L371.9 844.15" stroke="hsla(0, 0%, 42.3%, 0.3)" stroke-width="1.5"></path><path d="M371.9 844.15L247.22 852.87" stroke="hsla(0, 0%, 42.3%, 0.3)" stroke-width="1.5"></path><path d="M371.9 844.15L363.77 1003.11" stroke="hsla(0, 0%, 42.3%, 0.3)" stroke-width="1.5"></path><path d="M371.9 844.15L355.5 685.51" stroke="hsla(0, 0%, 42.3%, 0.3)" stroke-width="1.5"></path><path d="M371.9 844.15L531.34 805.12" stroke="hsla(0, 0%, 42.3%, 0.3)" stroke-width="1.5"></path><path d="M371.9 844.15L204.35 975.41" stroke="hsla(0, 0%, 42.3%, 0.3)" stroke-width="1.5"></path><path d="M371.9 844.15L509.12 665.79" stroke="hsla(0, 0%, 42.3%, 0.3)" stroke-width="1.5"></path><path d="M861.34 795.64L861.34 795.64" stroke="hsla(0, 0%, 42.3%, 0.3)" stroke-width="1.5"></path><path d="M861.34 795.64L943.2 860.41" stroke="hsla(0, 0%, 42.3%, 0.3)" stroke-width="1.5"></path><path d="M861.34 795.64L974.29 705.49" stroke="hsla(0, 0%, 42.3%, 0.3)" stroke-width="1.5"></path><path d="M861.34 795.64L789.98 985.5" stroke="hsla(0, 0%, 42.3%, 0.3)" stroke-width="1.5"></path><path d="M789.98 985.5L789.98 985.5" stroke="hsla(0, 0%, 42.3%, 0.3)" stroke-width="1.5"></path><path d="M789.98 985.5L681.75 939.62" stroke="hsla(0, 0%, 42.3%, 0.3)" stroke-width="1.5"></path><path d="M789.98 985.5L660.66 857.58" stroke="hsla(0, 0%, 42.3%, 0.3)" stroke-width="1.5"></path><path d="M789.98 985.5L981.15 996.9" stroke="hsla(0, 0%, 42.3%, 0.3)" stroke-width="1.5"></path><path d="M789.98 985.5L943.2 860.41" stroke="hsla(0, 0%, 42.3%, 0.3)" stroke-width="1.5"></path><path d="M789.98 985.5L531.34 805.12" stroke="hsla(0, 0%, 42.3%, 0.3)" stroke-width="1.5"></path><path d="M999.25 545.57L999.25 545.57" stroke="hsla(0, 0%, 42.3%, 0.3)" stroke-width="1.5"></path><path d="M999.25 545.57L1106.63 549.57" stroke="hsla(0, 0%, 42.3%, 0.3)" stroke-width="1.5"></path><path d="M999.25 545.57L974.29 705.49" stroke="hsla(0, 0%, 42.3%, 0.3)" stroke-width="1.5"></path><path d="M999.25 545.57L981.84 368.62" stroke="hsla(0, 0%, 42.3%, 0.3)" stroke-width="1.5"></path><path d="M999.25 545.57L803.6 538.71" stroke="hsla(0, 0%, 42.3%, 0.3)" stroke-width="1.5"></path><path d="M999.25 545.57L1145.68 387.7" stroke="hsla(0, 0%, 42.3%, 0.3)" stroke-width="1.5"></path><path d="M981.15 996.9L981.15 996.9" stroke="hsla(0, 0%, 42.3%, 0.3)" stroke-width="1.5"></path><path d="M981.15 996.9L943.2 860.41" stroke="hsla(0, 0%, 42.3%, 0.3)" stroke-width="1.5"></path><path d="M981.15 996.9L1117 943.58" stroke="hsla(0, 0%, 42.3%, 0.3)" stroke-width="1.5"></path><path d="M1117 943.58L1117 943.58" stroke="hsla(0, 0%, 42.3%, 0.3)" stroke-width="1.5"></path><path d="M1117 943.58L1244.62 960.48" stroke="hsla(0, 0%, 42.3%, 0.3)" stroke-width="1.5"></path><path d="M1117 943.58L943.2 860.41" stroke="hsla(0, 0%, 42.3%, 0.3)" stroke-width="1.5"></path><path d="M1117 943.58L1298.53 794.41" stroke="hsla(0, 0%, 42.3%, 0.3)" stroke-width="1.5"></path><path d="M1117 943.58L1390.51 963.06" stroke="hsla(0, 0%, 42.3%, 0.3)" stroke-width="1.5"></path><path d="M1411.88 -46.31L1411.88 -46.31" stroke="hsla(0, 0%, 42.3%, 0.3)" stroke-width="1.5"></path><path d="M1411.88 -46.31L1452.69 65.03" stroke="hsla(0, 0%, 42.3%, 0.3)" stroke-width="1.5"></path><path d="M1411.88 -46.31L1298.85 82.59" stroke="hsla(0, 0%, 42.3%, 0.3)" stroke-width="1.5"></path><path d="M1411.88 -46.31L1578.16 -92.07" stroke="hsla(0, 0%, 42.3%, 0.3)" stroke-width="1.5"></path><path d="M1411.88 -46.31L1589.08 108.96" stroke="hsla(0, 0%, 42.3%, 0.3)" stroke-width="1.5"></path><path d="M1411.88 -46.31L1444.23 193.86" stroke="hsla(0, 0%, 42.3%, 0.3)" stroke-width="1.5"></path><path d="M1452.69 65.03L1452.69 65.03" stroke="hsla(0, 0%, 42.3%, 0.3)" stroke-width="1.5"></path><path d="M1452.69 65.03L1444.23 193.86" stroke="hsla(0, 0%, 42.3%, 0.3)" stroke-width="1.5"></path><path d="M1452.69 65.03L1589.08 108.96" stroke="hsla(0, 0%, 42.3%, 0.3)" stroke-width="1.5"></path><path d="M1452.69 65.03L1298.85 82.59" stroke="hsla(0, 0%, 42.3%, 0.3)" stroke-width="1.5"></path><path d="M1565.69 352.68L1565.69 352.68" stroke="hsla(0, 0%, 42.3%, 0.3)" stroke-width="1.5"></path><path d="M1565.69 352.68L1562.3 250.51" stroke="hsla(0, 0%, 42.3%, 0.3)" stroke-width="1.5"></path><path d="M1565.69 352.68L1412.32 383.28" stroke="hsla(0, 0%, 42.3%, 0.3)" stroke-width="1.5"></path><path d="M-108.29 678.9L-108.29 678.9" stroke="hsla(0, 0%, 42.3%, 0.3)" stroke-width="1.5"></path><path d="M-108.29 678.9L-99.98 823.63" stroke="hsla(0, 0%, 42.3%, 0.3)" stroke-width="1.5"></path><path d="M-108.29 678.9L110.88 821.64" stroke="hsla(0, 0%, 42.3%, 0.3)" stroke-width="1.5"></path><path d="M-108.29 678.9L-64.75 995.49" stroke="hsla(0, 0%, 42.3%, 0.3)" stroke-width="1.5"></path><path d="M-108.29 678.9L96.51 987.26" stroke="hsla(0, 0%, 42.3%, 0.3)" stroke-width="1.5"></path><path d="M-108.29 678.9L247.22 852.87" stroke="hsla(0, 0%, 42.3%, 0.3)" stroke-width="1.5"></path><path d="M-108.29 678.9L204.35 975.41" stroke="hsla(0, 0%, 42.3%, 0.3)" stroke-width="1.5"></path><path d="M-99.98 823.63L-99.98 823.63" stroke="hsla(0, 0%, 42.3%, 0.3)" stroke-width="1.5"></path><path d="M-99.98 823.63L110.88 821.64" stroke="hsla(0, 0%, 42.3%, 0.3)" stroke-width="1.5"></path><path d="M-99.98 823.63L96.51 987.26" stroke="hsla(0, 0%, 42.3%, 0.3)" stroke-width="1.5"></path><path d="M110.88 821.64L110.88 821.64" stroke="hsla(0, 0%, 42.3%, 0.3)" stroke-width="1.5"></path><path d="M110.88 821.64L247.22 852.87" stroke="hsla(0, 0%, 42.3%, 0.3)" stroke-width="1.5"></path><path d="M110.88 821.64L96.51 987.26" stroke="hsla(0, 0%, 42.3%, 0.3)" stroke-width="1.5"></path><path d="M110.88 821.64L204.35 975.41" stroke="hsla(0, 0%, 42.3%, 0.3)" stroke-width="1.5"></path><path d="M96.51 987.26L96.51 987.26" stroke="hsla(0, 0%, 42.3%, 0.3)" stroke-width="1.5"></path><path d="M96.51 987.26L204.35 975.41" stroke="hsla(0, 0%, 42.3%, 0.3)" stroke-width="1.5"></path><path d="M96.51 987.26L247.22 852.87" stroke="hsla(0, 0%, 42.3%, 0.3)" stroke-width="1.5"></path><path d="M247.22 852.87L247.22 852.87" stroke="hsla(0, 0%, 42.3%, 0.3)" stroke-width="1.5"></path><path d="M247.22 852.87L204.35 975.41" stroke="hsla(0, 0%, 42.3%, 0.3)" stroke-width="1.5"></path><path d="M247.22 852.87L363.77 1003.11" stroke="hsla(0, 0%, 42.3%, 0.3)" stroke-width="1.5"></path><path d="M204.35 975.41L204.35 975.41" stroke="hsla(0, 0%, 42.3%, 0.3)" stroke-width="1.5"></path><path d="M204.35 975.41L363.77 1003.11" stroke="hsla(0, 0%, 42.3%, 0.3)" stroke-width="1.5"></path><path d="M355.5 685.51L355.5 685.51" stroke="hsla(0, 0%, 42.3%, 0.3)" stroke-width="1.5"></path><path d="M355.5 685.51L509.12 665.79" stroke="hsla(0, 0%, 42.3%, 0.3)" stroke-width="1.5"></path><path d="M355.5 685.51L247.22 852.87" stroke="hsla(0, 0%, 42.3%, 0.3)" stroke-width="1.5"></path><path d="M355.5 685.51L531.34 805.12" stroke="hsla(0, 0%, 42.3%, 0.3)" stroke-width="1.5"></path><path d="M355.5 685.51L110.88 821.64" stroke="hsla(0, 0%, 42.3%, 0.3)" stroke-width="1.5"></path><path d="M363.77 1003.11L363.77 1003.11" stroke="hsla(0, 0%, 42.3%, 0.3)" stroke-width="1.5"></path><path d="M363.77 1003.11L531.34 805.12" stroke="hsla(0, 0%, 42.3%, 0.3)" stroke-width="1.5"></path><path d="M509.12 665.79L509.12 665.79" stroke="hsla(0, 0%, 42.3%, 0.3)" stroke-width="1.5"></path><path d="M509.12 665.79L531.34 805.12" stroke="hsla(0, 0%, 42.3%, 0.3)" stroke-width="1.5"></path><path d="M509.12 665.79L668.3 690.84" stroke="hsla(0, 0%, 42.3%, 0.3)" stroke-width="1.5"></path><path d="M509.12 665.79L660.66 857.58" stroke="hsla(0, 0%, 42.3%, 0.3)" stroke-width="1.5"></path><path d="M509.12 665.79L803.6 538.71" stroke="hsla(0, 0%, 42.3%, 0.3)" stroke-width="1.5"></path><path d="M531.34 805.12L531.34 805.12" stroke="hsla(0, 0%, 42.3%, 0.3)" stroke-width="1.5"></path><path d="M531.34 805.12L660.66 857.58" stroke="hsla(0, 0%, 42.3%, 0.3)" stroke-width="1.5"></path><path d="M668.3 690.84L668.3 690.84" stroke="hsla(0, 0%, 42.3%, 0.3)" stroke-width="1.5"></path><path d="M668.3 690.84L660.66 857.58" stroke="hsla(0, 0%, 42.3%, 0.3)" stroke-width="1.5"></path><path d="M668.3 690.84L531.34 805.12" stroke="hsla(0, 0%, 42.3%, 0.3)" stroke-width="1.5"></path><path d="M660.66 857.58L660.66 857.58" stroke="hsla(0, 0%, 42.3%, 0.3)" stroke-width="1.5"></path><path d="M660.66 857.58L681.75 939.62" stroke="hsla(0, 0%, 42.3%, 0.3)" stroke-width="1.5"></path><path d="M660.66 857.58L861.34 795.64" stroke="hsla(0, 0%, 42.3%, 0.3)" stroke-width="1.5"></path><path d="M681.75 939.62L681.75 939.62" stroke="hsla(0, 0%, 42.3%, 0.3)" stroke-width="1.5"></path><path d="M803.6 538.71L803.6 538.71" stroke="hsla(0, 0%, 42.3%, 0.3)" stroke-width="1.5"></path><path d="M803.6 538.71L668.3 690.84" stroke="hsla(0, 0%, 42.3%, 0.3)" stroke-width="1.5"></path><path d="M981.84 368.62L981.84 368.62" stroke="hsla(0, 0%, 42.3%, 0.3)" stroke-width="1.5"></path><path d="M981.84 368.62L1145.68 387.7" stroke="hsla(0, 0%, 42.3%, 0.3)" stroke-width="1.5"></path><path d="M974.29 705.49L974.29 705.49" stroke="hsla(0, 0%, 42.3%, 0.3)" stroke-width="1.5"></path><path d="M974.29 705.49L943.2 860.41" stroke="hsla(0, 0%, 42.3%, 0.3)" stroke-width="1.5"></path><path d="M974.29 705.49L1106.63 549.57" stroke="hsla(0, 0%, 42.3%, 0.3)" stroke-width="1.5"></path><path d="M974.29 705.49L803.6 538.71" stroke="hsla(0, 0%, 42.3%, 0.3)" stroke-width="1.5"></path><path d="M943.2 860.41L943.2 860.41" stroke="hsla(0, 0%, 42.3%, 0.3)" stroke-width="1.5"></path><path d="M1160.8 -68.31L1160.8 -68.31" stroke="hsla(0, 0%, 42.3%, 0.3)" stroke-width="1.5"></path><path d="M1160.8 -68.31L1298.85 82.59" stroke="hsla(0, 0%, 42.3%, 0.3)" stroke-width="1.5"></path><path d="M1160.8 -68.31L1411.88 -46.31" stroke="hsla(0, 0%, 42.3%, 0.3)" stroke-width="1.5"></path><path d="M1145.68 387.7L1145.68 387.7" stroke="hsla(0, 0%, 42.3%, 0.3)" stroke-width="1.5"></path><path d="M1145.68 387.7L1106.63 549.57" stroke="hsla(0, 0%, 42.3%, 0.3)" stroke-width="1.5"></path><path d="M1145.68 387.7L1311.52 340.51" stroke="hsla(0, 0%, 42.3%, 0.3)" stroke-width="1.5"></path><path d="M1106.63 549.57L1106.63 549.57" stroke="hsla(0, 0%, 42.3%, 0.3)" stroke-width="1.5"></path><path d="M1106.63 549.57L1244.66 658.46" stroke="hsla(0, 0%, 42.3%, 0.3)" stroke-width="1.5"></path><path d="M1106.63 549.57L1309.29 548.36" stroke="hsla(0, 0%, 42.3%, 0.3)" stroke-width="1.5"></path><path d="M1298.85 82.59L1298.85 82.59" stroke="hsla(0, 0%, 42.3%, 0.3)" stroke-width="1.5"></path><path d="M1298.85 82.59L1253.66 217.92" stroke="hsla(0, 0%, 42.3%, 0.3)" stroke-width="1.5"></path><path d="M1298.85 82.59L1444.23 193.86" stroke="hsla(0, 0%, 42.3%, 0.3)" stroke-width="1.5"></path><path d="M1298.85 82.59L1311.52 340.51" stroke="hsla(0, 0%, 42.3%, 0.3)" stroke-width="1.5"></path><path d="M1253.66 217.92L1253.66 217.92" stroke="hsla(0, 0%, 42.3%, 0.3)" stroke-width="1.5"></path><path d="M1253.66 217.92L1311.52 340.51" stroke="hsla(0, 0%, 42.3%, 0.3)" stroke-width="1.5"></path><path d="M1253.66 217.92L1444.23 193.86" stroke="hsla(0, 0%, 42.3%, 0.3)" stroke-width="1.5"></path><path d="M1311.52 340.51L1311.52 340.51" stroke="hsla(0, 0%, 42.3%, 0.3)" stroke-width="1.5"></path><path d="M1311.52 340.51L1412.32 383.28" stroke="hsla(0, 0%, 42.3%, 0.3)" stroke-width="1.5"></path><path d="M1309.29 548.36L1309.29 548.36" stroke="hsla(0, 0%, 42.3%, 0.3)" stroke-width="1.5"></path><path d="M1309.29 548.36L1430.61 526.6" stroke="hsla(0, 0%, 42.3%, 0.3)" stroke-width="1.5"></path><path d="M1309.29 548.36L1244.66 658.46" stroke="hsla(0, 0%, 42.3%, 0.3)" stroke-width="1.5"></path><path d="M1309.29 548.36L1390.74 686.83" stroke="hsla(0, 0%, 42.3%, 0.3)" stroke-width="1.5"></path><path d="M1244.66 658.46L1244.66 658.46" stroke="hsla(0, 0%, 42.3%, 0.3)" stroke-width="1.5"></path><path d="M1244.66 658.46L1298.53 794.41" stroke="hsla(0, 0%, 42.3%, 0.3)" stroke-width="1.5"></path><path d="M1298.53 794.41L1298.53 794.41" stroke="hsla(0, 0%, 42.3%, 0.3)" stroke-width="1.5"></path><path d="M1298.53 794.41L1431.09 840.85" stroke="hsla(0, 0%, 42.3%, 0.3)" stroke-width="1.5"></path><path d="M1298.53 794.41L1390.74 686.83" stroke="hsla(0, 0%, 42.3%, 0.3)" stroke-width="1.5"></path><path d="M1298.53 794.41L1244.62 960.48" stroke="hsla(0, 0%, 42.3%, 0.3)" stroke-width="1.5"></path><path d="M1298.53 794.41L1390.51 963.06" stroke="hsla(0, 0%, 42.3%, 0.3)" stroke-width="1.5"></path><path d="M1244.62 960.48L1244.62 960.48" stroke="hsla(0, 0%, 42.3%, 0.3)" stroke-width="1.5"></path><path d="M1244.62 960.48L1390.51 963.06" stroke="hsla(0, 0%, 42.3%, 0.3)" stroke-width="1.5"></path><path d="M1244.62 960.48L1431.09 840.85" stroke="hsla(0, 0%, 42.3%, 0.3)" stroke-width="1.5"></path><path d="M1244.62 960.48L981.15 996.9" stroke="hsla(0, 0%, 42.3%, 0.3)" stroke-width="1.5"></path><path d="M1244.62 960.48L1244.66 658.46" stroke="hsla(0, 0%, 42.3%, 0.3)" stroke-width="1.5"></path><path d="M1444.23 193.86L1444.23 193.86" stroke="hsla(0, 0%, 42.3%, 0.3)" stroke-width="1.5"></path><path d="M1444.23 193.86L1562.3 250.51" stroke="hsla(0, 0%, 42.3%, 0.3)" stroke-width="1.5"></path><path d="M1444.23 193.86L1589.08 108.96" stroke="hsla(0, 0%, 42.3%, 0.3)" stroke-width="1.5"></path><path d="M1412.32 383.28L1412.32 383.28" stroke="hsla(0, 0%, 42.3%, 0.3)" stroke-width="1.5"></path><path d="M1412.32 383.28L1430.61 526.6" stroke="hsla(0, 0%, 42.3%, 0.3)" stroke-width="1.5"></path><path d="M1412.32 383.28L1444.23 193.86" stroke="hsla(0, 0%, 42.3%, 0.3)" stroke-width="1.5"></path><path d="M1412.32 383.28L1309.29 548.36" stroke="hsla(0, 0%, 42.3%, 0.3)" stroke-width="1.5"></path><path d="M1430.61 526.6L1430.61 526.6" stroke="hsla(0, 0%, 42.3%, 0.3)" stroke-width="1.5"></path><path d="M1390.74 686.83L1390.74 686.83" stroke="hsla(0, 0%, 42.3%, 0.3)" stroke-width="1.5"></path><path d="M1390.74 686.83L1244.66 658.46" stroke="hsla(0, 0%, 42.3%, 0.3)" stroke-width="1.5"></path><path d="M1390.74 686.83L1431.09 840.85" stroke="hsla(0, 0%, 42.3%, 0.3)" stroke-width="1.5"></path><path d="M1390.74 686.83L1430.61 526.6" stroke="hsla(0, 0%, 42.3%, 0.3)" stroke-width="1.5"></path><path d="M1390.74 686.83L1588.51 655.64" stroke="hsla(0, 0%, 42.3%, 0.3)" stroke-width="1.5"></path><path d="M1431.09 840.85L1431.09 840.85" stroke="hsla(0, 0%, 42.3%, 0.3)" stroke-width="1.5"></path><path d="M1431.09 840.85L1553.41 851.79" stroke="hsla(0, 0%, 42.3%, 0.3)" stroke-width="1.5"></path><path d="M1431.09 840.85L1390.51 963.06" stroke="hsla(0, 0%, 42.3%, 0.3)" stroke-width="1.5"></path><path d="M1431.09 840.85L1595.9 963.78" stroke="hsla(0, 0%, 42.3%, 0.3)" stroke-width="1.5"></path><path d="M1390.51 963.06L1390.51 963.06" stroke="hsla(0, 0%, 42.3%, 0.3)" stroke-width="1.5"></path><path d="M1390.51 963.06L1553.41 851.79" stroke="hsla(0, 0%, 42.3%, 0.3)" stroke-width="1.5"></path><path d="M1390.51 963.06L1595.9 963.78" stroke="hsla(0, 0%, 42.3%, 0.3)" stroke-width="1.5"></path><path d="M1578.16 -92.07L1578.16 -92.07" stroke="hsla(0, 0%, 42.3%, 0.3)" stroke-width="1.5"></path><path d="M1578.16 -92.07L1452.69 65.03" stroke="hsla(0, 0%, 42.3%, 0.3)" stroke-width="1.5"></path><path d="M1578.16 -92.07L1589.08 108.96" stroke="hsla(0, 0%, 42.3%, 0.3)" stroke-width="1.5"></path><path d="M1578.16 -92.07L1444.23 193.86" stroke="hsla(0, 0%, 42.3%, 0.3)" stroke-width="1.5"></path><path d="M1589.08 108.96L1589.08 108.96" stroke="hsla(0, 0%, 42.3%, 0.3)" stroke-width="1.5"></path><path d="M1589.08 108.96L1562.3 250.51" stroke="hsla(0, 0%, 42.3%, 0.3)" stroke-width="1.5"></path><path d="M1562.3 250.51L1562.3 250.51" stroke="hsla(0, 0%, 42.3%, 0.3)" stroke-width="1.5"></path><path d="M1562.3 250.51L1412.32 383.28" stroke="hsla(0, 0%, 42.3%, 0.3)" stroke-width="1.5"></path><path d="M1562.3 250.51L1452.69 65.03" stroke="hsla(0, 0%, 42.3%, 0.3)" stroke-width="1.5"></path><path d="M1562.3 250.51L1311.52 340.51" stroke="hsla(0, 0%, 42.3%, 0.3)" stroke-width="1.5"></path><path d="M1607.93 541.01L1607.93 541.01" stroke="hsla(0, 0%, 42.3%, 0.3)" stroke-width="1.5"></path><path d="M1607.93 541.01L1588.51 655.64" stroke="hsla(0, 0%, 42.3%, 0.3)" stroke-width="1.5"></path><path d="M1607.93 541.01L1430.61 526.6" stroke="hsla(0, 0%, 42.3%, 0.3)" stroke-width="1.5"></path><path d="M1607.93 541.01L1565.69 352.68" stroke="hsla(0, 0%, 42.3%, 0.3)" stroke-width="1.5"></path><path d="M1607.93 541.01L1412.32 383.28" stroke="hsla(0, 0%, 42.3%, 0.3)" stroke-width="1.5"></path><path d="M1607.93 541.01L1390.74 686.83" stroke="hsla(0, 0%, 42.3%, 0.3)" stroke-width="1.5"></path><path d="M1607.93 541.01L1562.3 250.51" stroke="hsla(0, 0%, 42.3%, 0.3)" stroke-width="1.5"></path><path d="M1588.51 655.64L1588.51 655.64" stroke="hsla(0, 0%, 42.3%, 0.3)" stroke-width="1.5"></path><path d="M1588.51 655.64L1553.41 851.79" stroke="hsla(0, 0%, 42.3%, 0.3)" stroke-width="1.5"></path><path d="M1553.41 851.79L1553.41 851.79" stroke="hsla(0, 0%, 42.3%, 0.3)" stroke-width="1.5"></path><path d="M1553.41 851.79L1595.9 963.78" stroke="hsla(0, 0%, 42.3%, 0.3)" stroke-width="1.5"></path><path d="M1595.9 963.78L1595.9 963.78" stroke="hsla(0, 0%, 42.3%, 0.3)" stroke-width="1.5"></path><path d="M1595.9 963.78L1588.51 655.64" stroke="hsla(0, 0%, 42.3%, 0.3)" stroke-width="1.5"></path><circle r="25" cx="-64.75" cy="995.49" fill="url(&quot;#SvgjsRadialGradient1457&quot;)"></circle><circle r="25" cx="371.9" cy="844.15" fill="url(&quot;#SvgjsRadialGradient1457&quot;)"></circle><circle r="25" cx="861.34" cy="795.64" fill="url(&quot;#SvgjsRadialGradient1457&quot;)"></circle><circle r="25" cx="789.98" cy="985.5" fill="url(&quot;#SvgjsRadialGradient1457&quot;)"></circle><circle r="25" cx="999.25" cy="545.57" fill="url(&quot;#SvgjsRadialGradient1457&quot;)"></circle><circle r="25" cx="981.15" cy="996.9" fill="url(&quot;#SvgjsRadialGradient1457&quot;)"></circle><circle r="25" cx="1117" cy="943.58" fill="url(&quot;#SvgjsRadialGradient1457&quot;)"></circle><circle r="25" cx="1411.88" cy="-46.31" fill="url(&quot;#SvgjsRadialGradient1457&quot;)"></circle><circle r="25" cx="1452.69" cy="65.03" fill="url(&quot;#SvgjsRadialGradient1457&quot;)"></circle><circle r="25" cx="1565.69" cy="352.68" fill="url(&quot;#SvgjsRadialGradient1457&quot;)"></circle><circle r="5" cx="-108.29" cy="678.9" fill="rgba(229, 229, 229, 0.65)"></circle><circle r="5" cx="-99.98" cy="823.63" fill="rgba(229, 229, 229, 0.65)"></circle><circle r="5" cx="110.88" cy="821.64" fill="rgba(229, 229, 229, 0.65)"></circle><circle r="5" cx="96.51" cy="987.26" fill="rgba(229, 229, 229, 0.65)"></circle><circle r="5" cx="247.22" cy="852.87" fill="rgba(229, 229, 229, 0.65)"></circle><circle r="5" cx="204.35" cy="975.41" fill="rgba(229, 229, 229, 0.65)"></circle><circle r="5" cx="355.5" cy="685.51" fill="rgba(229, 229, 229, 0.65)"></circle><circle r="5" cx="363.77" cy="1003.11" fill="rgba(229, 229, 229, 0.65)"></circle><circle r="5" cx="509.12" cy="665.79" fill="rgba(229, 229, 229, 0.65)"></circle><circle r="5" cx="531.34" cy="805.12" fill="rgba(229, 229, 229, 0.65)"></circle><circle r="5" cx="668.3" cy="690.84" fill="rgba(229, 229, 229, 0.65)"></circle><circle r="5" cx="660.66" cy="857.58" fill="rgba(229, 229, 229, 0.65)"></circle><circle r="5" cx="681.75" cy="939.62" fill="rgba(229, 229, 229, 0.65)"></circle><circle r="5" cx="803.6" cy="538.71" fill="rgba(229, 229, 229, 0.65)"></circle><circle r="5" cx="981.84" cy="368.62" fill="rgba(229, 229, 229, 0.65)"></circle><circle r="5" cx="974.29" cy="705.49" fill="rgba(229, 229, 229, 0.65)"></circle><circle r="5" cx="943.2" cy="860.41" fill="rgba(229, 229, 229, 0.65)"></circle><circle r="5" cx="1160.8" cy="-68.31" fill="rgba(229, 229, 229, 0.65)"></circle><circle r="5" cx="1145.68" cy="387.7" fill="rgba(229, 229, 229, 0.65)"></circle><circle r="5" cx="1106.63" cy="549.57" fill="rgba(229, 229, 229, 0.65)"></circle><circle r="5" cx="1298.85" cy="82.59" fill="rgba(229, 229, 229, 0.65)"></circle><circle r="5" cx="1253.66" cy="217.92" fill="rgba(229, 229, 229, 0.65)"></circle><circle r="5" cx="1311.52" cy="340.51" fill="rgba(229, 229, 229, 0.65)"></circle><circle r="5" cx="1309.29" cy="548.36" fill="rgba(229, 229, 229, 0.65)"></circle><circle r="5" cx="1244.66" cy="658.46" fill="rgba(229, 229, 229, 0.65)"></circle><circle r="5" cx="1298.53" cy="794.41" fill="rgba(229, 229, 229, 0.65)"></circle><circle r="5" cx="1244.62" cy="960.48" fill="rgba(229, 229, 229, 0.65)"></circle><circle r="5" cx="1444.23" cy="193.86" fill="rgba(229, 229, 229, 0.65)"></circle><circle r="5" cx="1412.32" cy="383.28" fill="rgba(229, 229, 229, 0.65)"></circle><circle r="5" cx="1430.61" cy="526.6" fill="rgba(229, 229, 229, 0.65)"></circle><circle r="5" cx="1390.74" cy="686.83" fill="rgba(229, 229, 229, 0.65)"></circle><circle r="5" cx="1431.09" cy="840.85" fill="rgba(229, 229, 229, 0.65)"></circle><circle r="5" cx="1390.51" cy="963.06" fill="rgba(229, 229, 229, 0.65)"></circle><circle r="5" cx="1578.16" cy="-92.07" fill="rgba(229, 229, 229, 0.65)"></circle><circle r="5" cx="1589.08" cy="108.96" fill="rgba(229, 229, 229, 0.65)"></circle><circle r="5" cx="1562.3" cy="250.51" fill="rgba(229, 229, 229, 0.65)"></circle><circle r="5" cx="1607.93" cy="541.01" fill="rgba(229, 229, 229, 0.65)"></circle><circle r="5" cx="1588.51" cy="655.64" fill="rgba(229, 229, 229, 0.65)"></circle><circle r="5" cx="1553.41" cy="851.79" fill="rgba(229, 229, 229, 0.65)"></circle><circle r="5" cx="1595.9" cy="963.78" fill="rgba(229, 229, 229, 0.65)"></circle></g><defs><mask id="SvgjsMask1456"><rect width="1440" height="811" fill="#ffffff"></rect></mask><radialGradient id="SvgjsRadialGradient1457"><stop stop-color="#ffffff" offset="0.1"></stop><stop stop-color="rgba(83, 83, 83, 0.3)" offset="0.2"></stop><stop stop-color="rgba(83, 83, 83, 0)" offset="1"></stop></radialGradient></defs></svg>